# xmcd
#
# Track frame offsets: 
#        150
#        21765
#        50114
#        68954
#        84192
#        100824
#        116966
#        131441
#        148196
#        165036
#        184891
#        202585
#        218934
#        235393
#        254342
#        269733
#        289886
#        312085
#        334260
#
# Disc length: 4695 seconds
#
# Revision: 2
# Processed by: cddbd v1.5.2PL0 Copyright (c) Steve Scherf et al.
# Submitted via: ExactAudioCopyFreeDBPlugin 1.0
#
DISCID=1f125513
DTITLE=Pet Shop Boys - Further Listening 2001-2004 (Volume 2)
DYEAR=2017
DGENRE=Pop
TTITLE0=Try It (I'm In Love With A Married Man)
TTITLE1=Here (PSB New Extended Mix)
TTITLE2=If Looks Could Kill
TTITLE3=A Powerful Friend
TTITLE4=Party Song
TTITLE5=No Excuse (Demo)
TTITLE6=Blue On Blue
TTITLE7=Jack and Jill Party (Demo)
TTITLE8=Baby (Demo)
TTITLE9=Flamboyant (Demo)
TTITLE10=Miracles
TTITLE11=Flamboyant (7'' Mix)
TTITLE12=Numb (Demo)
TTITLE13=In Private (feat. Elton John)
TTITLE14=Alone Again, Naturally (feat. Elton John)
TTITLE15=Reunion (Electro Mix)
TTITLE16=Bright Young Things
TTITLE17=We're The Pet Shop Boys
TTITLE18=It's A Sin (Barfly Version)
EXTD=
EXTT0=
EXTT1=
EXTT2=
EXTT3=
EXTT4=
EXTT5=
EXTT6=
EXTT7=
EXTT8=
EXTT9=
EXTT10=
EXTT11=
EXTT12=
EXTT13=
EXTT14=
EXTT15=
EXTT16=
EXTT17=
EXTT18=
PLAYORDER=
